<svg xmlns="http://www.w3.org/2000/svg" viewBox="0 0 512 512">
  <path fill="#4b4b4b" d="M479.949,409.402L353.612,207.617c-10.665-17.049-16.32-36.732-16.32-56.837L337.47,0.164L175.507,0 l-0.164,150.498c-0.024,20.128-5.726,39.858-16.438,56.906L32.122,408.932c-6.83,10.865-10.276,23.268-10.276,35.673 c0,11.122,2.763,22.293,8.324,32.381c11.805,21.374,34.251,34.638,58.648,34.662L423.054,512h0.022 c0.906,0,1.364-0.047,1.376-0.047l-0.012-0.048c23.856-0.47,45.702-13.521,57.318-34.426v-0.024 c5.61-10.111,8.396-21.316,8.396-32.486C490.154,432.612,486.733,420.243,479.949,409.402z M447.556,458.514 c-4.915,8.877-14.273,14.403-24.42,14.379c-0.106,0-0.129,0.024-0.2,0.024l-334.082-0.365c-10.159-0.012-19.542-5.549-24.432-14.45 c-2.341-4.233-3.481-8.842-3.481-13.498c0-5.186,1.423-10.323,4.28-14.862l126.76-201.515c14.65-23.28,22.41-50.193,22.456-77.706 l0.118-111.392l83.774,0.094l-0.129,111.416v0.047v0.094c0,27.442,7.725,54.308,22.28,77.578l126.325,201.784 c2.834,4.515,4.256,9.666,4.268,14.827C451.06,449.637,449.907,454.269,447.556,458.514z"></path>
  <path fill="#4b4b4b" d="M323.642,291.296c-1.434-2.316-3.973-3.716-6.689-3.716l-121.551-0.129c-2.728,0-5.268,1.387-6.703,3.704 L101.504,429.72c-1.528,2.445-1.622,5.526-0.223,8.054c1.387,2.528,4.044,4.08,6.925,4.08l295.599,0.318 c2.881,0.011,5.526-1.541,6.937-4.068c1.387-2.528,1.305-5.597-0.234-8.03L323.642,291.296z"></path>
</svg>
